# xmcd
#
# Track frame offsets:
#	150
#	49639
#	69172
#	112208
#	134875
#	175616
#	190196
#
# Disc length: 2903 seconds
#
# Revision: 1
# Processed by: cddbd v1.5.2PL0 Copyright (c) Steve Scherf et al.
# Submitted via: audiograbber 1.83.01
#
DISCID=620b5507
DTITLE=Ginger - Going Through Arlanda
DYEAR=2010
DGENRE=Blues Rock
TTITLE0=Ginger - T-10
TTITLE1=Ginger - Who are you
TTITLE2=Ginger - Flesh and skin
TTITLE3=Ginger - Raja
TTITLE4=Ginger - Crosstown bar blues
TTITLE5=Ginger - Rosie's
TTITLE6=Ginger - Drive Baby
EXTD=http://www.gingerspace.com/\n\nDownload MP3, 90MB zip file\nhttp://www.gin
EXTD=gerspace.com/download/GoingThroughArlanda_mp3_zip.zip
EXTT0=
EXTT1=
EXTT2=
EXTT3=
EXTT4=
EXTT5=
EXTT6=
PLAYORDER=
